<svg width="32" height="32" viewBox="0 0 32 32" fill="none" xmlns="http://www.w3.org/2000/svg">
<path d="M8.96005 12.1525L4.34255 16L8.96005 19.8475C9.11318 19.973 9.23996 20.1276 9.33307 20.3023C9.42617 20.477 9.48376 20.6685 9.50251 20.8656C9.52127 21.0627 9.50082 21.2615 9.44234 21.4507C9.38386 21.6399 9.28852 21.8156 9.1618 21.9677C9.03508 22.1198 8.87949 22.2454 8.70402 22.3371C8.52855 22.4288 8.33666 22.4848 8.13941 22.502C7.94217 22.5192 7.74347 22.4971 7.55479 22.4372C7.3661 22.3772 7.19116 22.2804 7.04005 22.1525L1.04005 17.1525C0.871061 17.0117 0.735099 16.8355 0.641794 16.6363C0.548488 16.4372 0.500122 16.2199 0.500122 16C0.500122 15.78 0.548488 15.5628 0.641794 15.3636C0.735099 15.1645 0.871061 14.9883 1.04005 14.8475L7.04005 9.84749C7.34614 9.59664 7.73896 9.47692 8.13293 9.51441C8.52689 9.55189 8.89009 9.74355 9.14337 10.0476C9.39666 10.3517 9.51952 10.7436 9.48518 11.1378C9.45084 11.5321 9.26209 11.8968 8.96005 12.1525ZM30.96 14.8475L24.96 9.84749C24.8089 9.71956 24.634 9.62281 24.4453 9.56282C24.2566 9.50283 24.0579 9.48079 23.8607 9.49797C23.6634 9.51515 23.4715 9.57121 23.2961 9.66291C23.1206 9.75462 22.965 9.88016 22.8383 10.0323C22.7116 10.1844 22.6162 10.3601 22.5578 10.5493C22.4993 10.7384 22.4788 10.9373 22.4976 11.1344C22.5163 11.3315 22.5739 11.5229 22.667 11.6977C22.7601 11.8724 22.8869 12.027 23.04 12.1525L27.6575 16L23.04 19.8475C22.8869 19.973 22.7601 20.1276 22.667 20.3023C22.5739 20.477 22.5163 20.6685 22.4976 20.8656C22.4788 21.0627 22.4993 21.2615 22.5578 21.4507C22.6162 21.6399 22.7116 21.8156 22.8383 21.9677C22.965 22.1198 23.1206 22.2454 23.2961 22.3371C23.4715 22.4288 23.6634 22.4848 23.8607 22.502C24.0579 22.5192 24.2566 22.4971 24.4453 22.4372C24.634 22.3772 24.8089 22.2804 24.96 22.1525L30.96 17.1525C31.129 17.0117 31.265 16.8355 31.3583 16.6363C31.4516 16.4372 31.5 16.2199 31.5 16C31.5 15.78 31.4516 15.5628 31.3583 15.3636C31.265 15.1645 31.129 14.9883 30.96 14.8475ZM20.5125 3.58999C20.3274 3.52265 20.1308 3.49245 19.9339 3.50112C19.7371 3.50978 19.5439 3.55714 19.3654 3.64048C19.1868 3.72382 19.0265 3.84152 18.8935 3.98686C18.7604 4.13219 18.6573 4.3023 18.59 4.48749L10.59 26.4875C10.4544 26.8613 10.4728 27.2736 10.6411 27.6339C10.8094 27.9942 11.1138 28.2729 11.4875 28.4087C11.6516 28.4693 11.8252 28.5002 12 28.5C12.308 28.5 12.6085 28.4053 12.8608 28.2286C13.1131 28.052 13.3048 27.8019 13.41 27.5125L21.41 5.51249C21.4774 5.32733 21.5076 5.13071 21.4989 4.93388C21.4903 4.73704 21.4429 4.54384 21.3596 4.36531C21.2762 4.18679 21.1585 4.02643 21.0132 3.89339C20.8678 3.76036 20.6977 3.65726 20.5125 3.58999Z" fill="#D28F15"/>
</svg>
