<svg width="25" height="24" viewBox="0 0 25 24" fill="none" xmlns="http://www.w3.org/2000/svg">
<path d="M2 0L3.91125 21.5936L12.4873 24L21.0872 21.5848L23 0H2ZM19.0294 4.94718L18.3932 12.1407L18.3951 12.1795L18.3925 12.2689V12.2681L17.9405 17.2979L17.8907 17.7448L12.5 19.2453L12.4958 19.2491L7.11447 17.7402L6.75009 13.5817H9.38897L9.5762 15.6962L12.5008 16.4939L12.5 16.4954V16.4951L15.4354 15.6861L15.7456 12.2427H9.60927L9.55662 11.6606L9.43668 10.2968L9.37376 9.56457H15.9788L16.2191 6.88649H6.15894L6.10629 6.30478L5.98654 4.94068L5.92343 4.20841H19.0923L19.0294 4.94718Z" fill="#3996DB"/>
</svg>
