<svg width="24" height="24" viewBox="0 0 24 24" fill="none" xmlns="http://www.w3.org/2000/svg">
<path d="M12.8478 8.25H8.24778C6.02483 8.25 4.22278 6.40318 4.22278 4.125C4.22278 1.84682 6.02483 0 8.24778 0H12.8478V8.25Z" fill="#E64A19"/>
<path d="M12.129 15.75H8.1759C5.99265 15.75 4.22278 14.0711 4.22278 12C4.22278 9.92893 5.99265 8.25 8.1759 8.25H12.129V15.75Z" fill="#7C4DFF"/>
<path d="M8.1759 24C5.99265 24 4.22278 22.1532 4.22278 19.875C4.22278 17.5968 5.99265 15.75 8.1759 15.75H12.129V19.875C12.129 22.1532 10.3592 24 8.1759 24Z" fill="#66BB6A"/>
<path d="M16.0822 8.25H12.129V0H16.0822C18.2654 0 20.0353 1.84682 20.0353 4.125C20.0353 6.40318 18.2654 8.25 16.0822 8.25Z" fill="#FF7043"/>
<path d="M16.0822 15.75C18.2654 15.75 20.0353 14.0711 20.0353 12C20.0353 9.92893 18.2654 8.25 16.0822 8.25C13.8989 8.25 12.129 9.92893 12.129 12C12.129 14.0711 13.8989 15.75 16.0822 15.75Z" fill="#29B6F6"/>
</svg>
