<svg width="25" height="24" viewBox="0 0 25 24" fill="none" xmlns="http://www.w3.org/2000/svg">
<g clip-path="url(#clip0_2149_2359)">
<rect x="0.5" width="23.4" height="24" rx="5" fill="#330000"/>
<path d="M12.1 14.359H8.38003L7.62003 16.7692C7.60003 16.8615 7.52003 16.9231 7.43003 16.9128H5.55003C5.44003 16.9128 5.41003 16.8513 5.44003 16.7282L8.66003 7.2205C8.69003 7.11793 8.72003 7.00511 8.76003 6.88203C8.80003 6.66665 8.82003 6.44101 8.82003 6.21537C8.81003 6.16408 8.85003 6.1128 8.90003 6.10255H11.49C11.57 6.10255 11.61 6.13332 11.62 6.1846L15.27 16.7487C15.3 16.8615 15.27 16.9128 15.17 16.9128H13.08C13.01 16.9231 12.94 16.8718 12.92 16.8L12.1 14.359ZM8.96003 12.2769H11.5C11.44 12.0615 11.36 11.8051 11.27 11.5384C11.18 11.2615 11.09 10.9641 11 10.6564C10.9 10.3384 10.81 10.0308 10.71 9.7128C10.61 9.39485 10.52 9.09742 10.44 8.79998C10.36 8.5128 10.29 8.24614 10.22 7.99998H10.2C10.11 8.44101 10 8.88203 9.86003 9.32306C9.71003 9.81537 9.56003 10.3282 9.40003 10.841C9.26003 11.3641 9.11003 11.8461 8.96003 12.2769ZM17.5 7.89742C17.17 7.90767 16.85 7.77434 16.61 7.53844C16.38 7.28203 16.26 6.94357 16.27 6.59485C16.26 6.24614 16.39 5.91793 16.63 5.68203C16.87 5.44614 17.19 5.32306 17.52 5.32306C17.91 5.32306 18.21 5.44614 18.43 5.68203C18.65 5.92819 18.77 6.25639 18.76 6.59485C18.77 6.94357 18.65 7.28203 18.41 7.53844C18.18 7.7846 17.84 7.91793 17.5 7.89742ZM16.38 16.8V8.90255C16.38 8.79998 16.42 8.75896 16.51 8.75896H18.49C18.58 8.75896 18.62 8.81024 18.62 8.90255V16.8C18.62 16.9128 18.58 16.9641 18.49 16.9641H16.53C16.43 16.9641 16.38 16.9025 16.38 16.8Z" fill="#FF9A00"/>
</g>
<defs>
<clipPath id="clip0_2149_2359">
<rect width="24" height="24" fill="white" transform="translate(0.5)"/>
</clipPath>
</defs>
</svg>
