<svg width="25" height="24" viewBox="0 0 25 24" fill="none" xmlns="http://www.w3.org/2000/svg">
<g clip-path="url(#clip0_2149_2350)">
<rect x="0.5" width="24" height="24" rx="5" fill="#D28F15"/>
<path d="M5.75 19.9267L7.66538 18.785C8.03485 19.4305 8.37123 19.9765 9.17758 19.9765C9.95022 19.9765 10.4376 19.6801 10.4376 18.52V10.6417H12.7899V18.5526C12.7899 20.9522 11.3619 22.0447 9.27867 22.0447C8.54218 22.084 7.81089 21.9026 7.18111 21.5244C6.55133 21.1462 6.052 20.5896 5.75 19.9267ZM14.068 19.6777L15.9834 18.5852C16.1963 19.0108 16.5269 19.3686 16.937 19.6174C17.3472 19.8663 17.8202 19.9961 18.3019 19.9919C19.2768 19.9919 19.8978 19.5117 19.8978 18.8496C19.8978 18.0552 19.2593 17.7737 18.184 17.3083L17.5979 17.0629C15.9009 16.3515 14.7751 15.4576 14.7751 13.5707C14.7751 11.8327 16.1194 10.509 18.2195 10.509C18.9 10.4604 19.5799 10.6102 20.1745 10.9399C20.769 11.2695 21.2519 11.7644 21.5628 12.3626L19.7311 13.5215C19.6109 13.2246 19.4019 12.9706 19.1318 12.7933C18.8618 12.6159 18.5434 12.5236 18.2189 12.5286C18.0774 12.5145 17.9345 12.5296 17.7993 12.573C17.6641 12.6163 17.5395 12.687 17.4336 12.7804C17.3277 12.8738 17.2427 12.988 17.184 13.1156C17.1254 13.2432 17.0944 13.3815 17.093 13.5215C17.093 14.2169 17.5299 14.4979 18.5372 14.9282L19.1251 15.1766C21.1247 16.0208 22.25 16.8815 22.25 18.8176C22.25 20.903 20.5868 22.0453 18.3525 22.0453C16.1681 22.0453 14.757 21.0186 14.068 19.6777Z" fill="#16181D"/>
</g>
<defs>
<clipPath id="clip0_2149_2350">
<rect width="24" height="24" fill="white" transform="translate(0.5)"/>
</clipPath>
</defs>
</svg>
