<svg width="25" height="24" viewBox="0 0 25 24" fill="none" xmlns="http://www.w3.org/2000/svg">
<rect x="0.5" width="24" height="24" rx="5" fill="#001E36"/>
<path d="M5.8999 16.8307V6.2769C5.8999 6.2051 5.9299 6.16408 5.9999 6.16408C6.1699 6.16408 6.3299 6.16408 6.5599 6.15382C6.7999 6.14356 7.0499 6.14356 7.3199 6.13331C7.5899 6.12305 7.8799 6.12305 8.1899 6.1128C8.4999 6.10254 8.7999 6.10254 9.0999 6.10254C9.9199 6.10254 10.5999 6.2051 11.1599 6.42049C11.6599 6.59485 12.1199 6.88203 12.4999 7.26151C12.8199 7.58972 13.0699 7.98972 13.2299 8.43074C13.3799 8.86151 13.4599 9.30254 13.4599 9.76408C13.4599 10.6461 13.2599 11.3743 12.8599 11.9487C12.4599 12.5231 11.8999 12.9538 11.2499 13.2C10.5699 13.4564 9.8199 13.5487 8.9999 13.5487C8.7599 13.5487 8.5999 13.5487 8.4999 13.5384C8.3999 13.5282 8.2599 13.5282 8.0699 13.5282V16.8205C8.0799 16.8923 8.0299 16.9538 7.9599 16.9641C7.9499 16.9641 7.9399 16.9641 7.9199 16.9641H6.0199C5.9399 16.9641 5.8999 16.9231 5.8999 16.8307ZM8.0799 8.14356V11.5897C8.2199 11.6 8.3499 11.6102 8.4699 11.6102H8.9999C9.3899 11.6102 9.7799 11.5487 10.1499 11.4256C10.4699 11.3333 10.7499 11.1384 10.9699 10.882C11.1799 10.6256 11.2799 10.2769 11.2799 9.82562C11.2899 9.50767 11.2099 9.18972 11.0499 8.9128C10.8799 8.64613 10.6399 8.441 10.3499 8.32818C9.9799 8.17433 9.5799 8.1128 9.1699 8.12305C8.9099 8.12305 8.6799 8.12305 8.4899 8.13331C8.2899 8.12305 8.1499 8.13331 8.0799 8.14356Z" fill="#31A8FF"/>
<path d="M19.7 10.964C19.4 10.7999 19.08 10.6871 18.74 10.6153C18.37 10.5332 18 10.482 17.62 10.482C17.42 10.4717 17.21 10.5025 17.02 10.5537C16.89 10.5845 16.78 10.6563 16.71 10.7589C16.66 10.8409 16.63 10.9435 16.63 11.0358C16.63 11.1281 16.67 11.2204 16.73 11.3025C16.82 11.4153 16.94 11.5076 17.07 11.5794C17.3 11.7025 17.54 11.8153 17.78 11.9179C18.32 12.1025 18.84 12.3589 19.32 12.6666C19.65 12.882 19.92 13.1691 20.11 13.5179C20.27 13.8461 20.35 14.205 20.34 14.5743C20.35 15.0563 20.21 15.5384 19.95 15.9384C19.67 16.3486 19.28 16.6666 18.83 16.8512C18.34 17.0666 17.74 17.1794 17.02 17.1794C16.56 17.1794 16.11 17.1384 15.66 17.0461C15.31 16.9845 14.96 16.8717 14.64 16.7179C14.57 16.6768 14.52 16.605 14.53 16.523V14.7384C14.53 14.7076 14.54 14.6666 14.57 14.6461C14.6 14.6255 14.63 14.6358 14.66 14.6563C15.05 14.8922 15.46 15.0563 15.9 15.1589C16.28 15.2614 16.68 15.3127 17.08 15.3127C17.46 15.3127 17.73 15.2614 17.91 15.1691C18.07 15.0973 18.18 14.923 18.18 14.7384C18.18 14.5948 18.1 14.4614 17.94 14.3281C17.78 14.1948 17.45 14.0409 16.96 13.8461C16.45 13.6614 15.98 13.4153 15.54 13.1076C15.23 12.882 14.97 12.5845 14.78 12.2358C14.62 11.9076 14.54 11.5486 14.55 11.1896C14.55 10.7486 14.67 10.3281 14.89 9.94862C15.14 9.53836 15.51 9.21016 15.94 9.00503C16.41 8.75888 17 8.64606 17.71 8.64606C18.12 8.64606 18.54 8.67683 18.95 8.73836C19.25 8.77939 19.54 8.86144 19.81 8.97426C19.85 8.98452 19.89 9.02554 19.91 9.06657C19.92 9.1076 19.93 9.14862 19.93 9.18965V10.8614C19.93 10.9025 19.91 10.9435 19.88 10.964C19.79 10.9845 19.74 10.9845 19.7 10.964Z" fill="#31A8FF"/>
</svg>
