<svg width="25" height="24" viewBox="0 0 25 24" fill="none" xmlns="http://www.w3.org/2000/svg">
<rect x="0.5" width="24" height="24" rx="12" fill="#3996DB"/>
<rect x="0.5" width="24" height="24" rx="5" fill="#3996DB"/>
<path fill-rule="evenodd" clip-rule="evenodd" d="M15.3565 19.098V21.4446C15.738 21.6402 16.1892 21.7868 16.71 21.8846C17.2309 21.9824 17.7799 22.0312 18.357 22.0312C18.9194 22.0312 19.4537 21.9775 19.9599 21.8699C20.4661 21.7624 20.91 21.5851 21.2915 21.3383C21.6729 21.0914 21.9749 20.7687 22.1975 20.3703C22.42 19.9718 22.5312 19.4793 22.5312 18.8927C22.5312 18.4673 22.4677 18.0946 22.3405 17.7744C22.2133 17.4542 22.03 17.1694 21.7903 16.9201C21.5507 16.6708 21.2633 16.4471 20.9283 16.2491C20.5933 16.0511 20.2155 15.8641 19.7949 15.6881C19.4868 15.561 19.2104 15.4376 18.9659 15.3178C18.7213 15.198 18.5135 15.0758 18.3423 14.9512C18.1711 14.8265 18.0391 14.6945 17.9462 14.5552C17.8533 14.4158 17.8068 14.2582 17.8068 14.0821C17.8068 13.9208 17.8483 13.7754 17.9315 13.6458C18.0147 13.5163 18.132 13.4051 18.2836 13.3122C18.4353 13.2193 18.6211 13.1472 18.8412 13.0958C19.0613 13.0445 19.3058 13.0189 19.5748 13.0189C19.7704 13.0189 19.977 13.0335 20.1947 13.0628C20.4123 13.0922 20.6312 13.1374 20.8513 13.1985C21.0714 13.2596 21.2853 13.3366 21.4932 13.4295C21.701 13.5224 21.893 13.6299 22.0691 13.7522V11.5596C21.7121 11.4227 21.322 11.3212 20.899 11.2552C20.4759 11.1892 19.9905 11.1562 19.4427 11.1562C18.8852 11.1562 18.357 11.2162 17.8581 11.3359C17.3593 11.4557 16.9204 11.6427 16.5413 11.8969C16.1622 12.1511 15.8627 12.475 15.6426 12.8685C15.4226 13.2621 15.3125 13.7326 15.3125 14.2801C15.3125 14.9792 15.5142 15.5757 15.9177 16.0695C16.3212 16.5632 16.9338 16.9812 17.7554 17.3234C18.0782 17.4554 18.379 17.5849 18.6578 17.712C18.9365 17.8392 19.1774 17.9712 19.3804 18.108C19.5833 18.2449 19.7435 18.394 19.8609 18.5554C19.9783 18.7167 20.037 18.9 20.037 19.1054C20.037 19.2569 20.0003 19.3974 19.9269 19.527C19.8536 19.6566 19.7423 19.769 19.5931 19.8643C19.444 19.9597 19.2581 20.0342 19.0356 20.088C18.813 20.1418 18.5526 20.1686 18.2543 20.1686C17.7456 20.1686 17.2419 20.0794 16.743 19.901C16.2442 19.7226 15.782 19.4549 15.3565 19.098ZM11.4116 13.3163H14.4219V11.3906H6.03125V13.3163H9.02684V21.8906H11.4116V13.3163Z" fill="#1E1E1E"/>
</svg>
